<svg aria-hidden="true" style="width:0;height:0;position:absolute;overflow:hidden" xmlns="http://www.w3.org/2000/svg"><defs><symbol id="icon-scissors-logo-offer" viewBox="0 0 24 32"><path d="M13.957 11.846a.782.782 0 0 0 .619.135c.106-.023.207-.068.297-.133s.167-.149.228-.247l6.271-10.169c.122-.198.166-.44.124-.673s-.169-.439-.351-.572c-.182-.133-.405-.181-.62-.135s-.404.183-.526.38l-6.27 10.17c-.122.197-.166.439-.124.672s.168.439.35.571zM2.145.363c-.179.136-.301.344-.339.578s.011.475.137.67l8.849 13.759-4.169 6.763c-1.067-.514-2.272-.577-3.378-.176s-2.034 1.238-2.6 2.345c-.566 1.107-.731 2.405-.461 3.639s.954 2.314 1.919 3.029c.965.715 2.14 1.012 3.295.834s2.206-.819 2.947-1.797 1.118-2.222 1.058-3.488c-.061-1.266-.555-2.462-1.385-3.354a.37.37 0 0 1-.028-.028l3.819-6.189 3.931 6.109-.022.035c-.814.906-1.287 2.111-1.325 3.377s.361 2.504 1.119 3.468c.758.965 1.82 1.587 2.978 1.745s2.327-.159 3.279-.891c.952-.731 1.617-1.823 1.865-3.061s.061-2.533-.524-3.63-1.527-1.918-2.64-2.301-2.316-.3-3.374.232L3.302.593C3.24.495 3.162.411 3.07.346S2.876.237 2.768.215C2.66.194 2.55.195 2.443.221s-.208.073-.297.141zM16.89 24.341c.419-.464.955-.782 1.54-.914s1.194-.073 1.75.17c.555.243 1.032.66 1.369 1.197s.521 1.171.527 1.821c.006.65-.165 1.287-.492 1.831s-.796.969-1.346 1.223-1.158.325-1.746.204a2.964 2.964 0 0 1-1.558-.884c-.286-.301-.514-.661-.671-1.059a3.518 3.518 0 0 1-.024-2.519c.149-.401.371-.765.651-1.071zm-12.172-.846c.7-.006 1.381.251 1.926.728s.922 1.145 1.066 1.89c.144.745.045 1.52-.279 2.193s-.853 1.204-1.496 1.501c-.644.297-1.363.342-2.035.127s-1.255-.675-1.65-1.304-.577-1.386-.515-2.143.363-1.468.853-2.01c.278-.309.609-.554.974-.723s.759-.257 1.156-.26z"/></symbol><symbol id="icon-scissors-logo-header" viewBox="0 0 24 32"><path d="M13.6 11.387c.081.063.173.106.269.129s.196.024.293.003c.097-.021.189-.062.272-.123s.153-.139.209-.23l5.789-9.515c.112-.185.155-.412.118-.632s-.149-.415-.314-.541c-.164-.126-.366-.174-.562-.133s-.369.168-.481.353l-5.787 9.516c-.112.185-.155.412-.118.632s.149.415.313.541zM2.964.472c-.164.126-.277.321-.313.541s.006.447.118.632l7.923 13.03-3.849 6.328c-.965-.494-2.06-.564-3.069-.196s-1.859 1.147-2.384 2.184-.685 2.257-.451 3.421c.234 1.164.847 2.187 1.718 2.868s1.936.972 2.988.815 2.012-.751 2.694-1.665c.682-.914 1.036-2.081.992-3.273s-.483-2.323-1.23-3.169a.216.216 0 0 1-.025-.027l3.525-5.791 3.52 5.785-.02.032c-.748.845-1.188 1.975-1.234 3.167s.306 2.36.987 3.275 1.641 1.51 2.692 1.67c1.051.159 2.117-.129 2.988-.809s1.486-1.701 1.722-2.864.078-2.383-.445-3.421c-.522-1.038-1.371-1.819-2.379-2.189s-2.103-.303-3.069.188L4.013.701C3.958.608 3.887.528 3.804.466S3.628.361 3.531.34a.683.683 0 0 0-.567.132zm13.192 22.702c.385-.433.875-.727 1.408-.846s1.086-.058 1.589.176.932.631 1.234 1.139c.302.509.463 1.107.463 1.719s-.161 1.21-.463 1.719c-.302.509-.732.905-1.234 1.139s-1.055.296-1.589.176a2.675 2.675 0 0 1-1.408-.846c-.257-.286-.462-.627-.601-1.002a3.422 3.422 0 0 1 0-2.372c.139-.376.344-.716.601-1.003zM5.1 22.269c.636 0 1.253.249 1.744.703s.828 1.086.952 1.788.028 1.431-.272 2.062-.785 1.126-1.373 1.399c-.588.274-1.242.31-1.851.102s-1.135-.647-1.488-1.242-.512-1.31-.45-2.022.343-1.378.793-1.884c.255-.288.558-.516.892-.672s.692-.235 1.053-.234z"/></symbol><symbol id="icon-Check" viewBox="0 0 41 32"><path d="M36.167 1.058c-5.493 3.627-10.2 7.148-14.718 11.956-1.992 2.121-4.228 4.631-5.795 7.072-.88 1.288-2.424 3.279-3.126 5.296-2.062-2.499-4.259-5.316-6.585-7.602-1.658-1.629-7.331.502-5.387 2.412 3.484 3.423 6.223 7.475 9.585 11.014 1.406 1.479 5.256-.825 6.228-1.876 3.192-3.464 4.173-8.082 6.681-11.988 3.83-5.975 9.826-10.509 15.665-14.362 3.899-2.788.391-3.858-2.542-1.92z"/></symbol><symbol id="icon-close" viewBox="0 0 32 32"><path d="m16.754 16.047 8.662-8.662a.5.5 0 0 0-.707-.707l-8.662 8.662-8.662-8.662a.5.5 0 0 0-.707.707l8.662 8.662-8.662 8.662a.5.5 0 0 0 .708.707l8.662-8.662 8.662 8.662a.498.498 0 0 0 .708 0 .5.5 0 0 0 0-.707l-8.662-8.662z"/></symbol><symbol id="icon-burger_menu" viewBox="0 0 32 32"><path d="M2 4h32v2H2zm0 12h32v2H2zm0 12h32v2H2z"/></symbol><symbol id="icon-location" viewBox="0 0 32 32"><path d="M10.345 7.69C11.846 6.18 13.88 5.333 16 5.333s4.155.847 5.655 2.357A8.077 8.077 0 0 1 24 13.384c0 3.684-2.043 7.019-4.171 9.481A27.57 27.57 0 0 1 16 26.501a27.57 27.57 0 0 1-3.829-3.636C10.043 20.403 8 17.069 8 13.384c0-2.137.844-4.185 2.345-5.694zm5.271 20.188.384-.545.384.545a.67.67 0 0 1-.769 0zm0 0 .384-.545.384.545.002-.002.006-.004.021-.015a12.22 12.22 0 0 0 .365-.273 25.42 25.42 0 0 0 1.009-.82 28.906 28.906 0 0 0 3.05-3.027c2.205-2.551 4.496-6.191 4.496-10.353 0-2.488-.982-4.874-2.732-6.635S18.477 3.999 16 3.999s-4.851.99-6.601 2.75a9.41 9.41 0 0 0-2.732 6.635c0 4.162 2.291 7.802 4.496 10.353a28.906 28.906 0 0 0 3.05 3.027 24.542 24.542 0 0 0 1.374 1.093l.021.015.006.004.002.002zm-2.283-14.545a2.667 2.667 0 1 1 5.334 0 2.667 2.667 0 0 1-5.334 0zm2.667-4a4 4 0 1 0 0 8 4 4 0 0 0 0-8z"/></symbol><symbol id="icon-clock" viewBox="0 0 32 32"><path d="M16 7.156a.71.71 0 0 0-.709.709v7.858l-3.599 3.634a.709.709 0 0 0 .504 1.21c.197 0 .375-.08.503-.209l3.804-3.841.014-.016.031-.034c.01-.011.013-.017.019-.027l.021-.028.001-.001.019-.03.017-.029.016-.032.014-.031.011-.031.012-.034c.004-.011.006-.021.008-.032l.009-.036c.003-.012.003-.023.005-.035l.005-.034V7.868A.71.71 0 0 0 16 7.159z"/><path d="M16 3.666c-6.774 0-12.285 5.511-12.285 12.285S9.226 28.236 16 28.236s12.285-5.511 12.285-12.285S22.774 3.666 16 3.666zm0 23.153c-5.992 0-10.867-4.875-10.867-10.868S10.008 5.084 16 5.084s10.867 4.875 10.867 10.867S21.992 26.819 16 26.819z"/></symbol><symbol id="icon-phone_white" viewBox="0 0 32 32"><path d="m31.038 24.788-6-4.009c-.999-.668-1.961-.645-2.793.039-2.336 1.915-3.721 1.366-3.947 1.253-1.321-.661-2.569-1.285-4.494-3.209-2.389-2.391-3.252-3.917-3.875-5.16-.249-.497-.535-2.169 1.1-3.913.765-.814.835-1.814.199-2.814-.49-.771-.49-.771-.875-1.337A744.3 744.3 0 0 1 7.211.962C6.778.315 6.164 0 5.332 0c-.943 0-1.42.478-1.805.862l-2 2C.111 4.277-.002 5.089-.002 6c0 1.147 1.657 8.626 9.528 16.47C17.372 30.343 24.843 32 25.99 32h.044c.903-.013 1.706-.133 3.101-1.529l2-2c.385-.384.863-.862.863-1.805 0-.832-.315-1.447-.962-1.879zm-.843 2.741-2 2c-1.123 1.123-1.611 1.13-2.203 1.138-.082-.003-7.261-.849-15.521-9.139C2.277 13.363 1.335 6.065 1.334 6.001c0-.591 0-1.057 1.137-2.195l2-2c.351-.35.491-.471.863-.471.435 0 .618.142.771.37a661.656 661.656 0 0 0 3.147 4.683c.375.552.375.552.853 1.305.379.595.201.922-.047 1.186-2.081 2.216-1.773 4.514-1.321 5.421.669 1.337 1.593 2.975 4.125 5.507 2.077 2.077 3.482 2.779 4.84 3.459.374.186.862.289 1.375.289.884 0 2.297-.295 4.013-1.703.243-.201.417-.224.526-.224.191 0 .421.089.681.263l6 4.008c.227.151.369.334.369.77 0 .371-.121.512-.471.862z"/></symbol><symbol id="icon-instagram" viewBox="0 0 32 32"><path d="M16 2.881c4.275 0 4.781.019 6.462.094 1.563.069 2.406.331 2.969.55a4.952 4.952 0 0 1 1.837 1.194 5.015 5.015 0 0 1 1.2 1.838c.219.563.481 1.412.55 2.969.075 1.688.094 2.194.094 6.463s-.019 4.781-.094 6.463c-.069 1.563-.331 2.406-.55 2.969a4.94 4.94 0 0 1-1.194 1.837 5.02 5.02 0 0 1-1.837 1.2c-.563.219-1.413.481-2.969.55-1.688.075-2.194.094-6.463.094s-4.781-.019-6.463-.094c-1.563-.069-2.406-.331-2.969-.55a4.952 4.952 0 0 1-1.838-1.194 5.02 5.02 0 0 1-1.2-1.837c-.219-.563-.481-1.413-.55-2.969-.075-1.688-.094-2.194-.094-6.463s.019-4.781.094-6.463c.069-1.563.331-2.406.55-2.969a4.964 4.964 0 0 1 1.194-1.838 5.015 5.015 0 0 1 1.838-1.2c.563-.219 1.412-.481 2.969-.55 1.681-.075 2.188-.094 6.463-.094zM16 0c-4.344 0-4.887.019-6.594.094-1.7.075-2.869.35-3.881.744-1.056.412-1.95.956-2.837 1.85a7.833 7.833 0 0 0-1.85 2.831C.444 6.538.169 7.7.094 9.4.019 11.113 0 11.656 0 16s.019 4.887.094 6.594c.075 1.7.35 2.869.744 3.881.413 1.056.956 1.95 1.85 2.837a7.82 7.82 0 0 0 2.831 1.844c1.019.394 2.181.669 3.881.744 1.706.075 2.25.094 6.594.094s4.888-.019 6.594-.094c1.7-.075 2.869-.35 3.881-.744 1.05-.406 1.944-.956 2.831-1.844s1.438-1.781 1.844-2.831c.394-1.019.669-2.181.744-3.881.075-1.706.094-2.25.094-6.594s-.019-4.887-.094-6.594c-.075-1.7-.35-2.869-.744-3.881a7.506 7.506 0 0 0-1.831-2.844A7.82 7.82 0 0 0 26.482.843C25.463.449 24.301.174 22.601.099c-1.712-.081-2.256-.1-6.6-.1z"/><path d="M16 7.781c-4.537 0-8.219 3.681-8.219 8.219s3.681 8.219 8.219 8.219 8.219-3.681 8.219-8.219A8.221 8.221 0 0 0 16 7.781zm0 13.55a5.331 5.331 0 1 1 0-10.663 5.331 5.331 0 0 1 0 10.663zM26.462 7.456a1.919 1.919 0 1 1-3.838 0 1.919 1.919 0 0 1 3.838 0z"/></symbol><symbol id="icon-phone_black" viewBox="0 0 32 32"><path d="M22 20c-2 2-2 4-4 4s-4-2-6-4-4-4-4-6 2-2 4-4-4-8-6-8-6 6-6 6c0 4 4.109 12.109 8 16s12 8 16 8c0 0 6-4 6-6s-6-8-8-6z"/></symbol><symbol id="icon-Eco-friendly-Cleaning" viewBox="0 0 20 32"><path d="M2.206 1.236c-.577.543-.849 1.188-.849 2.002 0 1.052.136 1.222 1.222 1.561 1.935.645 2.104 1.527.849 4.548C1.493 13.997 0 22.38 0 28.591v3.021h9.809c9.299 0 9.842-.034 10.046-.645.238-.815-.339-9.707-.849-12.795-.441-2.545-.95-3.19-2.444-3.19-.611 0-1.392-.407-2.172-1.12-1.154-1.052-1.222-1.222-1.392-3.903-.204-2.953.136-3.631.916-1.765.645 1.595 2.545 3.055 3.903 3.055.95 0 1.188-.136 1.188-.645 0-.441-.373-.781-1.188-1.052-1.29-.407-2.647-2.138-3.055-3.767-.238-1.018.339-1.324 2.817-1.324h1.425V.388H3.019l-.815.848zm15.442 1.188c0 .611-.238.679-1.901.679-1.697 0-2.002.102-3.055 1.154-.645.645-1.154 1.391-1.154 1.697 0 .441-.441.543-2.613.543-2.647 0-2.647 0-3.156-1.12C5.498 4.8 4.751 3.952 4.14 3.544l-1.12-.713.781-.543c.645-.441 1.901-.543 7.297-.543 6.313 0 6.55.034 6.55.679zm-6.109 8.044c0 2.07.17 2.885.679 3.767.679 1.086 2.919 2.41 4.107 2.444.815 0 1.358 3.021 1.561 8.722l.204 4.853H1.697v-2.172c0-5.939 1.901-15.341 3.869-19.142.543-1.086.577-1.086 3.258-1.086h2.715v2.613z"/><path d="M7.636 19.19c-.577.238-1.493.95-2.002 1.561-.849 1.018-.916 1.324-.747 2.851.136.95.305 2.545.407 3.496.17 1.459.305 1.799.849 1.799.407 0 .713-.305.848-.95.441-2.172 1.358-4.039 2.613-5.396.747-.815 1.561-1.459 1.799-1.459.747 0 .577.339-.747 1.629s-2.681 3.903-2.342 4.48c.102.204.882.339 1.697.339 1.188 0 1.765-.204 2.579-.95 1.052-.95 1.459-2.342 2.07-7.025.102-.645-.102-.679-2.953-.747-1.969-.068-3.428.068-4.073.373z"/></symbol><symbol id="icon-Hair-Colouring" viewBox="0 0 29 32"><path d="M.395.504c-.789.789-.329 1.907 2.696 6.214l3.09 4.405-1.578 1.479c-1.907 1.775-2.63 3.321-2.63 5.589 0 2.203.559 3.419 2.696 5.951.986 1.184 1.907 2.532 2.005 3.025.362 1.381 2.038 3.025 3.912 3.879 2.466 1.052 6.608 1.052 9.074 0 1.874-.855 3.551-2.499 3.912-3.879.099-.493 1.019-1.841 2.005-3.025 2.137-2.532 2.696-3.748 2.696-6.016 0-3.255-1.907-5.753-5.753-7.529-3.189-1.479-8.219-1.94-11.836-1.085-.526.099-1.447-.822-4.57-4.636C2.169.076 1.413-.516.393.503zm8.153 10.06c2.071 2.564 2.17 2.663 3.485 2.597 1.282-.033 3.09.756 3.09 1.348 0 .132-1.085 1.085-2.433 2.104l-2.4 1.874-.395-.822c-.46-1.019-.46-2.268 0-3.156.362-.69.362-.756-2.959-5.359-1.71-2.367-.855-1.611 1.611 1.414zm9.534.395c3.551.658 6.904 2.762 8.088 4.997.559 1.052.592 3.321.099 4.307-.46.855-2.63 3.189-2.992 3.189-.131 0-.559-.592-.888-1.282-.362-.69-1.184-1.611-1.841-2.005-.625-.395-1.151-.986-1.151-1.282 0-.329-.493-1.249-1.085-2.038-.625-.789-1.052-1.644-.953-1.874.066-.23-.526-1.085-1.348-1.874-1.315-1.315-1.611-1.479-2.992-1.479-.822 0-1.512-.132-1.512-.296 0-.625 3.978-.855 6.575-.362zm-10.29 2.334c.197.197.296 1.151.197 2.367-.131 1.808-.066 2.17.723 3.321.888 1.282.888 1.315.23 1.808-.362.296-.888 1.019-1.184 1.578-.296.592-.658 1.085-.789 1.085-.362 0-2.564-2.334-2.992-3.189-.46-.921-.46-3.222 0-4.142.493-.986 2.63-3.189 3.09-3.189.197 0 .526.164.723.362zm8.909 4.34.756 1.052-.888.756-.855.756-.658-.855c-1.184-1.545-2.499-.625-1.414 1.019.789 1.216.263 1.447-.69.296-.427-.559-.789-1.085-.789-1.216 0-.23 3.321-2.893 3.616-2.893.099 0 .493.493.921 1.085zm2.729 3.945c1.151.756 2.104 2.301 1.775 2.827-.263.46-4.537 1.348-6.312 1.315-.855 0-2.531-.263-3.715-.559-1.94-.526-2.137-.625-2.038-1.381.099-.855 1.249-2.301 1.841-2.301.197 0 .789.526 1.282 1.151s1.052 1.151 1.216 1.151c.132 0 1.151-.658 2.203-1.479 1.052-.789 2.071-1.447 2.268-1.479.197 0 .855.329 1.479.756zm-7.759 5.392c2.597.526 6.016.395 8.548-.362.888-.296 1.677-.427 1.775-.329.493.46-.986 2.038-2.729 2.926-1.578.789-2.367.953-4.11.953-2.499-.033-5.26-1.052-6.279-2.367-.822-1.052-.888-1.874-.066-1.545.296.131 1.611.46 2.86.723z"/></symbol><symbol id="icon-15" viewBox="0 0 47 32"><path d="M.583 31.059v-1.318l6.776-1.129h4.376l6.682 1.129v1.318H.582zm5.459 0c.063-.878.11-1.882.141-3.012s.047-2.275.047-3.435c.031-1.192.047-2.322.047-3.388V5.036l-4.8.424V4.048L12.395.895l.612.518-.188 8.8v14.4l.094 3.435c.031 1.129.079 2.133.141 3.012H6.042zm28.405.706c-2.698 0-4.831-.612-6.4-1.835s-2.478-2.98-2.729-5.271c.22-.69.565-1.176 1.035-1.459.502-.314 1.02-.471 1.553-.471.816 0 1.475.267 1.976.8.502.502.863 1.459 1.082 2.871l.706 4.376-1.412-1.271c.596.282 1.145.471 1.647.565a8.69 8.69 0 0 0 1.506.141c1.286 0 2.369-.329 3.247-.988.878-.69 1.537-1.616 1.976-2.776s.659-2.447.659-3.859c0-1.38-.22-2.588-.659-3.624-.408-1.067-1.035-1.898-1.882-2.494-.847-.627-1.914-.941-3.2-.941-.784 0-1.584.078-2.4.235-.784.157-1.537.361-2.259.612l-.941-.518.941-14.494h16.518v5.412H29.364l1.176-3.859-.894 12.518-1.224-.753a12.869 12.869 0 0 1 3.388-1.224 18.687 18.687 0 0 1 3.765-.376c2.133 0 4 .329 5.6.988 1.631.659 2.902 1.647 3.812 2.965s1.365 2.98 1.365 4.988c0 2.133-.502 3.922-1.506 5.365s-2.4 2.541-4.188 3.294c-1.788.722-3.859 1.082-6.212 1.082z"/></symbol><symbol id="icon-Trust" viewBox="0 0 32 32"><path d="M14.03.822c-2.306 1.429-3.02 4.514-1.656 7.242.812 1.559 3.832 4.677 6.56 6.69l1.851 1.397 1.884-1.397c2.696-2.014 5.716-5.131 6.528-6.69 1.364-2.728.65-5.813-1.656-7.242-1.462-.877-4.19-.877-5.651.032l-1.104.682-1.104-.682c-1.462-.909-4.19-.909-5.651-.032zm5.489 2.24 1.267 1.267 1.267-1.267c1.072-1.072 1.462-1.267 2.631-1.267 1.104 0 1.559.195 2.468 1.104 1.462 1.462 1.494 2.923.13 4.904-1.234 1.786-5.814 6.008-6.496 6.008s-5.878-4.839-6.788-6.301c-1.039-1.689-.909-3.28.422-4.612.909-.909 1.364-1.104 2.468-1.104 1.169 0 1.559.195 2.631 1.267zM25.17 19.983l-3.573 3.573-5.846-.065 2.241-.455c2.793-.552 3.443-1.104 3.443-2.89 0-2.338-.26-2.436-7.275-2.436-3.8 0-6.333.13-6.788.357C6.268 18.619 0 24.952 0 25.504 0 26.121 5.846 32 6.463 32c.26 0 1.072-.585 1.851-1.299l1.429-1.299h13.413l4.677-4.612c4.255-4.222 4.644-4.709 4.644-5.781 0-1.786-.747-2.598-2.371-2.598-1.332 0-1.526.162-4.937 3.573zm5.619-1.136c.065.455-1.137 1.884-4.157 4.872l-4.222 4.222-13.803.195-2.111 2.046-2.371-2.338-2.338-2.338 2.436-2.436c3.735-3.767 3.93-3.865 8.996-3.995 5.164-.162 6.593.032 6.593.909 0 .844-.617 1.104-4.125 1.819l-3.02.585 2.403 2.468h7.502l3.41-3.41c3.443-3.475 4.579-4.092 4.807-2.598z"/></symbol><symbol id="icon-Cash" viewBox="0 0 36 32"><path d="M3.414.317.475.43v19.555h34.663V.393h-2.713c-1.507 0-7.988-.038-14.43-.113C11.552.242 4.996.242 3.414.318zm2.336 9.872v8.289H1.982V1.9H5.75v8.289zm22.606 0v8.289H7.257V1.9h21.099v8.289zm5.275 0v8.289h-3.768V1.9h3.768v8.289z"/><path d="M14.566 5.441c-.716.716-1.281 1.545-1.281 1.884s-.301.603-.754.603c-1.243 0-2.261 1.319-2.261 3.014 0 1.846 1.017 3.014 2.637 3.014 1.469 0 1.545-1.206.151-1.809-1.356-.641-1.093-2.035.49-2.487.867-.264 1.319-.716 1.733-1.771.98-2.524 4.069-2.524 5.049 0 .414 1.055.867 1.507 1.733 1.771 1.582.452 1.846 1.846.49 2.487-.527.226-.98.716-.98 1.13 0 .942 2.035.904 3.014-.075 1.62-1.62.565-5.275-1.507-5.275-.452 0-.754-.264-.754-.603s-.565-1.168-1.281-1.884c-1.13-1.13-1.507-1.281-3.24-1.281s-2.11.151-3.24 1.281zM27.113 20.588c-.151.151-.264.791-.264 1.394 0 1.055-.075 1.093-1.206.904-6.405-1.168-8.138-1.432-11.567-1.771-5.199-.527-13.489-.49-13.828.038-.565.942.829 1.243 7.272 1.507 9.231.377 16.767 1.582 22.305 3.542 2.977 1.055 3.052.98 3.052-2.449 0-2.75-.075-3.014-.754-3.014-.641 0-.754.264-.754 1.922 0 1.62-.113 1.884-.603 1.695-.339-.113-.98-.339-1.469-.452-.754-.188-.942-.49-1.017-1.771-.113-1.432-.603-2.11-1.168-1.545z"/><path d="M.286 23.338c-.565.942.678 1.319 5.35 1.582 8.364.49 16.239 2.562 21.363 5.652 3.466 2.072 3.617 2.035 3.617-1.168 0-2.374-.075-2.637-.754-2.637-.603 0-.754.264-.754 1.319v1.356l-1.13-.603c-.942-.49-1.13-.829-1.13-1.884s-.151-1.319-.754-1.319c-.527 0-.754.264-.754.791 0 .904.188.942-4.069-.565-4.521-1.582-9.645-2.487-15.372-2.75-3.994-.151-5.388-.113-5.614.226z"/></symbol></defs></svg>