<svg aria-hidden="true" style="position: absolute; width: 0; height: 0; overflow: hidden;" version="1.1" xmlns="http://www.w3.org/2000/svg" xmlns:xlink="http://www.w3.org/1999/xlink">
<defs>
<symbol id="icon-scissors-logo-offer" viewBox="0 0 24 32">
<path d="M13.957 11.846c0.090 0.066 0.191 0.111 0.297 0.134s0.216 0.023 0.322 0.001c0.106-0.023 0.207-0.068 0.297-0.133s0.167-0.149 0.228-0.247l6.271-10.169c0.122-0.198 0.166-0.44 0.124-0.673s-0.169-0.439-0.351-0.572c-0.182-0.133-0.405-0.181-0.62-0.135s-0.404 0.183-0.526 0.38l-6.27 10.17c-0.122 0.197-0.166 0.439-0.124 0.672s0.168 0.439 0.35 0.571zM2.145 0.363c-0.179 0.136-0.301 0.344-0.339 0.578s0.011 0.475 0.137 0.67l8.849 13.759-4.169 6.763c-1.067-0.514-2.272-0.577-3.378-0.176s-2.034 1.238-2.6 2.345c-0.566 1.107-0.731 2.405-0.461 3.639s0.954 2.314 1.919 3.029c0.965 0.715 2.14 1.012 3.295 0.834s2.206-0.819 2.947-1.797 1.118-2.222 1.058-3.488c-0.061-1.266-0.555-2.462-1.385-3.354-0.010-0.009-0.019-0.018-0.028-0.028l3.819-6.189 3.931 6.109-0.022 0.035c-0.814 0.906-1.287 2.111-1.325 3.377s0.361 2.504 1.119 3.468c0.758 0.965 1.82 1.587 2.978 1.745s2.327-0.159 3.279-0.891c0.952-0.731 1.617-1.823 1.865-3.061s0.061-2.533-0.524-3.63c-0.585-1.097-1.527-1.918-2.64-2.301s-2.316-0.3-3.374 0.232l-13.794-21.438c-0.062-0.098-0.14-0.182-0.232-0.247s-0.194-0.109-0.302-0.131c-0.108-0.021-0.218-0.020-0.325 0.006s-0.208 0.073-0.297 0.141zM16.89 24.341c0.419-0.464 0.955-0.782 1.54-0.914s1.194-0.073 1.75 0.17c0.555 0.243 1.032 0.66 1.369 1.197s0.521 1.171 0.527 1.821c0.006 0.65-0.165 1.287-0.492 1.831s-0.796 0.969-1.346 1.223-1.158 0.325-1.746 0.204c-0.588-0.121-1.13-0.429-1.558-0.884-0.286-0.301-0.514-0.661-0.671-1.059s-0.24-0.825-0.244-1.257c-0.004-0.433 0.071-0.861 0.22-1.262s0.371-0.765 0.651-1.071zM4.718 23.495c0.7-0.006 1.381 0.251 1.926 0.728s0.922 1.145 1.066 1.89c0.144 0.745 0.045 1.52-0.279 2.193s-0.853 1.204-1.496 1.501c-0.644 0.297-1.363 0.342-2.035 0.127s-1.255-0.675-1.65-1.304c-0.395-0.629-0.577-1.386-0.515-2.143s0.363-1.468 0.853-2.010c0.278-0.309 0.609-0.554 0.974-0.723s0.759-0.257 1.156-0.26z"></path>
</symbol>
<symbol id="icon-scissors-logo-header" viewBox="0 0 24 32">
<path d="M13.6 11.387c0.081 0.063 0.173 0.106 0.269 0.129s0.196 0.024 0.293 0.003c0.097-0.021 0.189-0.062 0.272-0.123s0.153-0.139 0.209-0.23l5.789-9.515c0.112-0.185 0.155-0.412 0.118-0.632s-0.149-0.415-0.314-0.541c-0.164-0.126-0.366-0.174-0.562-0.133s-0.369 0.168-0.481 0.353l-5.787 9.516c-0.112 0.185-0.155 0.412-0.118 0.632s0.149 0.415 0.313 0.541zM2.964 0.472c-0.164 0.126-0.277 0.321-0.313 0.541s0.006 0.447 0.118 0.632l7.923 13.030-3.849 6.328c-0.965-0.494-2.060-0.564-3.069-0.196s-1.859 1.147-2.384 2.184-0.685 2.257-0.451 3.421c0.234 1.164 0.847 2.187 1.718 2.868s1.936 0.972 2.988 0.815 2.012-0.751 2.694-1.665c0.682-0.914 1.036-2.081 0.992-3.273s-0.483-2.323-1.23-3.169c-0.009-0.008-0.017-0.017-0.025-0.027l3.525-5.791 3.52 5.785-0.020 0.032c-0.748 0.845-1.188 1.975-1.234 3.167s0.306 2.36 0.987 3.275 1.641 1.51 2.692 1.67c1.051 0.159 2.117-0.129 2.988-0.809s1.486-1.701 1.722-2.864 0.078-2.383-0.445-3.421c-0.522-1.038-1.371-1.819-2.379-2.189s-2.103-0.303-3.069 0.188l-12.35-20.303c-0.055-0.093-0.126-0.173-0.209-0.235s-0.176-0.105-0.273-0.126c-0.098-0.021-0.198-0.020-0.295 0.002s-0.19 0.067-0.272 0.13zM16.156 23.174c0.385-0.433 0.875-0.727 1.408-0.846s1.086-0.058 1.589 0.176 0.932 0.631 1.234 1.139c0.302 0.509 0.463 1.107 0.463 1.719s-0.161 1.21-0.463 1.719c-0.302 0.509-0.732 0.905-1.234 1.139s-1.055 0.296-1.589 0.176c-0.533-0.119-1.023-0.414-1.408-0.846-0.257-0.286-0.462-0.627-0.601-1.002s-0.211-0.779-0.211-1.186c0-0.407 0.072-0.81 0.211-1.186s0.344-0.716 0.601-1.003zM5.1 22.269c0.636 0 1.253 0.249 1.744 0.703s0.828 1.086 0.952 1.788c0.124 0.702 0.028 1.431-0.272 2.062s-0.785 1.126-1.373 1.399c-0.588 0.274-1.242 0.31-1.851 0.102s-1.135-0.647-1.488-1.242c-0.353-0.595-0.512-1.31-0.45-2.022s0.343-1.378 0.793-1.884c0.255-0.288 0.558-0.516 0.892-0.672s0.692-0.235 1.053-0.234z"></path>
</symbol>
<symbol id="icon-Check" viewBox="0 0 41 32">
<path d="M36.167 1.058c-5.493 3.627-10.2 7.148-14.718 11.956-1.992 2.121-4.228 4.631-5.795 7.072-0.88 1.288-2.424 3.279-3.126 5.296-2.062-2.499-4.259-5.316-6.585-7.602-1.658-1.629-7.331 0.502-5.387 2.412 3.484 3.423 6.223 7.475 9.585 11.014 1.406 1.479 5.256-0.825 6.228-1.876 3.192-3.464 4.173-8.082 6.681-11.988 3.83-5.975 9.826-10.509 15.665-14.362 3.899-2.788 0.391-3.858-2.542-1.92z"></path>
</symbol>
<symbol id="icon-close" viewBox="0 0 32 32">
<path d="M16.754 16.047l8.662-8.662c0.195-0.195 0.195-0.512 0-0.707s-0.512-0.195-0.707 0l-8.662 8.662-8.662-8.662c-0.195-0.195-0.512-0.195-0.707 0s-0.195 0.512 0 0.707l8.662 8.662-8.662 8.662c-0.195 0.195-0.195 0.512 0 0.707 0.098 0.098 0.226 0.146 0.354 0.146s0.256-0.049 0.354-0.146l8.662-8.662 8.662 8.662c0.098 0.098 0.226 0.146 0.354 0.146s0.256-0.049 0.354-0.146c0.195-0.195 0.195-0.512 0-0.707l-8.662-8.662z"></path>
</symbol>
<symbol id="icon-burger_menu" viewBox="0 0 32 32">
<path d="M2 4h32v2h-32zM2 16h32v2h-32zM2 28h32v2h-32zM2"></path>
</symbol>
<symbol id="icon-location" viewBox="0 0 32 32">
<path d="M10.345 7.69c1.501-1.51 3.535-2.357 5.655-2.357s4.155 0.847 5.655 2.357c1.501 1.51 2.345 3.558 2.345 5.694 0 3.684-2.043 7.019-4.171 9.481-1.056 1.222-2.114 2.206-2.908 2.885-0.377 0.323-0.694 0.575-0.921 0.751-0.227-0.175-0.544-0.428-0.921-0.751-0.794-0.679-1.852-1.663-2.908-2.885-2.128-2.462-4.171-5.796-4.171-9.481 0-2.137 0.844-4.185 2.345-5.694zM15.616 27.878c0 0 0 0 0.384-0.545 0.384 0.545 0.384 0.545 0.384 0.545-0.23 0.162-0.538 0.162-0.769 0zM15.616 27.878l0.384-0.545 0.384 0.545 0.002-0.002 0.006-0.004 0.021-0.015c0.018-0.013 0.044-0.032 0.078-0.057 0.067-0.049 0.164-0.122 0.287-0.216 0.245-0.188 0.593-0.465 1.009-0.82 0.831-0.711 1.94-1.742 3.050-3.027 2.205-2.551 4.496-6.191 4.496-10.353 0-2.488-0.982-4.874-2.732-6.635s-4.124-2.75-6.601-2.75-4.851 0.99-6.601 2.75c-1.75 1.76-2.732 4.147-2.732 6.635 0 4.162 2.291 7.802 4.496 10.353 1.11 1.285 2.219 2.316 3.050 3.027 0.416 0.356 0.764 0.632 1.009 0.82 0.123 0.094 0.22 0.167 0.287 0.216 0.034 0.025 0.060 0.044 0.078 0.057l0.021 0.015 0.006 0.004 0.002 0.002zM13.333 13.333c0-1.473 1.194-2.667 2.667-2.667s2.667 1.194 2.667 2.667c0 1.473-1.194 2.667-2.667 2.667s-2.667-1.194-2.667-2.667zM16 9.333c-2.209 0-4 1.791-4 4s1.791 4 4 4c2.209 0 4-1.791 4-4s-1.791-4-4-4z"></path>
</symbol>
<symbol id="icon-clock" viewBox="0 0 32 32">
<path d="M16 7.156c-0.391 0-0.709 0.317-0.709 0.709v0 7.858l-3.599 3.634c-0.127 0.128-0.206 0.305-0.206 0.5 0 0.392 0.318 0.71 0.71 0.71 0.197 0 0.375-0.080 0.503-0.209l0-0 3.804-3.841c0.005-0.005 0.009-0.011 0.014-0.016s0.021-0.023 0.031-0.034 0.013-0.017 0.019-0.027c0.007-0.009 0.014-0.018 0.021-0.028l0.001-0.001c0.007-0.010 0.012-0.020 0.019-0.030s0.012-0.019 0.017-0.029 0.011-0.021 0.016-0.032 0.010-0.021 0.014-0.031l0.011-0.031c0.004-0.011 0.008-0.023 0.012-0.034s0.006-0.021 0.008-0.032 0.006-0.024 0.009-0.036 0.003-0.023 0.005-0.035 0.004-0.023 0.005-0.034 0-0.030 0-0.045 0-0.015 0-0.023v-8.151c0 0 0 0 0 0 0-0.39-0.316-0.707-0.705-0.709h-0z"></path>
<path d="M16 3.666c-6.774 0-12.285 5.511-12.285 12.285s5.511 12.285 12.285 12.285 12.285-5.511 12.285-12.285-5.511-12.285-12.285-12.285zM16 26.819c-5.992 0-10.867-4.875-10.867-10.868s4.875-10.867 10.867-10.867 10.867 4.875 10.867 10.867-4.875 10.868-10.867 10.868z"></path>
</symbol>
<symbol id="icon-phone_white" viewBox="0 0 32 32">
<path d="M31.038 24.788l-6-4.009c-0.999-0.668-1.961-0.645-2.793 0.039-2.336 1.915-3.721 1.366-3.947 1.253-1.321-0.661-2.569-1.285-4.494-3.209-2.389-2.391-3.252-3.917-3.875-5.16-0.249-0.497-0.535-2.169 1.1-3.913 0.765-0.814 0.835-1.814 0.199-2.814-0.49-0.771-0.49-0.771-0.875-1.337-0.38-0.56-1.139-1.679-3.142-4.676-0.433-0.647-1.047-0.962-1.879-0.962-0.943 0-1.42 0.478-1.805 0.862l-2 2c-1.416 1.415-1.529 2.227-1.529 3.138 0 1.147 1.657 8.626 9.528 16.47 7.846 7.873 15.317 9.53 16.464 9.53h0.044c0.903-0.013 1.706-0.133 3.101-1.529l2-2c0.385-0.384 0.863-0.862 0.863-1.805 0-0.832-0.315-1.447-0.962-1.879zM30.195 27.529l-2 2c-1.123 1.123-1.611 1.13-2.203 1.138-0.082-0.003-7.261-0.849-15.521-9.139-8.194-8.165-9.136-15.463-9.137-15.527 0-0.591 0-1.057 1.137-2.195l2-2c0.351-0.35 0.491-0.471 0.863-0.471 0.435 0 0.618 0.142 0.771 0.37 2.006 3.003 2.767 4.124 3.147 4.683 0.375 0.552 0.375 0.552 0.853 1.305 0.379 0.595 0.201 0.922-0.047 1.186-2.081 2.216-1.773 4.514-1.321 5.421 0.669 1.337 1.593 2.975 4.125 5.507 2.077 2.077 3.482 2.779 4.84 3.459 0.374 0.186 0.862 0.289 1.375 0.289 0.884 0 2.297-0.295 4.013-1.703 0.243-0.201 0.417-0.224 0.526-0.224 0.191 0 0.421 0.089 0.681 0.263l6 4.008c0.227 0.151 0.369 0.334 0.369 0.77 0 0.371-0.121 0.512-0.471 0.862z"></path>
</symbol>
<symbol id="icon-instagram" viewBox="0 0 32 32">
<path d="M16 2.881c4.275 0 4.781 0.019 6.462 0.094 1.563 0.069 2.406 0.331 2.969 0.55 0.744 0.288 1.281 0.638 1.837 1.194 0.563 0.563 0.906 1.094 1.2 1.838 0.219 0.563 0.481 1.412 0.55 2.969 0.075 1.688 0.094 2.194 0.094 6.463s-0.019 4.781-0.094 6.463c-0.069 1.563-0.331 2.406-0.55 2.969-0.288 0.744-0.637 1.281-1.194 1.837-0.563 0.563-1.094 0.906-1.837 1.2-0.563 0.219-1.413 0.481-2.969 0.55-1.688 0.075-2.194 0.094-6.463 0.094s-4.781-0.019-6.463-0.094c-1.563-0.069-2.406-0.331-2.969-0.55-0.744-0.288-1.281-0.637-1.838-1.194-0.563-0.563-0.906-1.094-1.2-1.837-0.219-0.563-0.481-1.413-0.55-2.969-0.075-1.688-0.094-2.194-0.094-6.463s0.019-4.781 0.094-6.463c0.069-1.563 0.331-2.406 0.55-2.969 0.288-0.744 0.638-1.281 1.194-1.838 0.563-0.563 1.094-0.906 1.838-1.2 0.563-0.219 1.412-0.481 2.969-0.55 1.681-0.075 2.188-0.094 6.463-0.094zM16 0c-4.344 0-4.887 0.019-6.594 0.094-1.7 0.075-2.869 0.35-3.881 0.744-1.056 0.412-1.95 0.956-2.837 1.85-0.894 0.888-1.438 1.781-1.85 2.831-0.394 1.019-0.669 2.181-0.744 3.881-0.075 1.713-0.094 2.256-0.094 6.6s0.019 4.887 0.094 6.594c0.075 1.7 0.35 2.869 0.744 3.881 0.413 1.056 0.956 1.95 1.85 2.837 0.887 0.887 1.781 1.438 2.831 1.844 1.019 0.394 2.181 0.669 3.881 0.744 1.706 0.075 2.25 0.094 6.594 0.094s4.888-0.019 6.594-0.094c1.7-0.075 2.869-0.35 3.881-0.744 1.050-0.406 1.944-0.956 2.831-1.844s1.438-1.781 1.844-2.831c0.394-1.019 0.669-2.181 0.744-3.881 0.075-1.706 0.094-2.25 0.094-6.594s-0.019-4.887-0.094-6.594c-0.075-1.7-0.35-2.869-0.744-3.881-0.394-1.063-0.938-1.956-1.831-2.844-0.887-0.887-1.781-1.438-2.831-1.844-1.019-0.394-2.181-0.669-3.881-0.744-1.712-0.081-2.256-0.1-6.6-0.1v0z"></path>
<path d="M16 7.781c-4.537 0-8.219 3.681-8.219 8.219s3.681 8.219 8.219 8.219 8.219-3.681 8.219-8.219c0-4.537-3.681-8.219-8.219-8.219zM16 21.331c-2.944 0-5.331-2.387-5.331-5.331s2.387-5.331 5.331-5.331c2.944 0 5.331 2.387 5.331 5.331s-2.387 5.331-5.331 5.331z"></path>
<path d="M26.462 7.456c0 1.060-0.859 1.919-1.919 1.919s-1.919-0.859-1.919-1.919c0-1.060 0.859-1.919 1.919-1.919s1.919 0.859 1.919 1.919z"></path>
</symbol>
<symbol id="icon-phone_black" viewBox="0 0 32 32">
<path d="M22 20c-2 2-2 4-4 4s-4-2-6-4-4-4-4-6 2-2 4-4-4-8-6-8-6 6-6 6c0 4 4.109 12.109 8 16s12 8 16 8c0 0 6-4 6-6s-6-8-8-6z"></path>
</symbol>
<symbol id="icon-Eco-friendly-Cleaning" viewBox="0 0 20 32">
<path d="M2.206 1.236c-0.577 0.543-0.849 1.188-0.849 2.002 0 1.052 0.136 1.222 1.222 1.561 1.935 0.645 2.104 1.527 0.849 4.548-1.935 4.65-3.428 13.033-3.428 19.244v3.021h9.809c9.299 0 9.842-0.034 10.046-0.645 0.238-0.815-0.339-9.707-0.849-12.795-0.441-2.545-0.95-3.19-2.444-3.19-0.611 0-1.392-0.407-2.172-1.12-1.154-1.052-1.222-1.222-1.392-3.903-0.204-2.953 0.136-3.631 0.916-1.765 0.645 1.595 2.545 3.055 3.903 3.055 0.95 0 1.188-0.136 1.188-0.645 0-0.441-0.373-0.781-1.188-1.052-1.29-0.407-2.647-2.138-3.055-3.767-0.238-1.018 0.339-1.324 2.817-1.324h1.425v-4.073h-15.985l-0.815 0.848zM17.648 2.424c0 0.611-0.238 0.679-1.901 0.679-1.697 0-2.002 0.102-3.055 1.154-0.645 0.645-1.154 1.391-1.154 1.697 0 0.441-0.441 0.543-2.613 0.543-2.647 0-2.647 0-3.156-1.12-0.271-0.577-1.018-1.425-1.629-1.833l-1.12-0.713 0.781-0.543c0.645-0.441 1.901-0.543 7.297-0.543 6.313 0 6.55 0.034 6.55 0.679zM11.539 10.468c0 2.070 0.17 2.885 0.679 3.767 0.679 1.086 2.919 2.41 4.107 2.444 0.815 0 1.358 3.021 1.561 8.722l0.204 4.853h-16.393v-2.172c0-5.939 1.901-15.341 3.869-19.142 0.543-1.086 0.577-1.086 3.258-1.086h2.715v2.613z"></path>
<path d="M7.636 19.19c-0.577 0.238-1.493 0.95-2.002 1.561-0.849 1.018-0.916 1.324-0.747 2.851 0.136 0.95 0.305 2.545 0.407 3.496 0.17 1.459 0.305 1.799 0.849 1.799 0.407 0 0.713-0.305 0.848-0.95 0.441-2.172 1.358-4.039 2.613-5.396 0.747-0.815 1.561-1.459 1.799-1.459 0.747 0 0.577 0.339-0.747 1.629s-2.681 3.903-2.342 4.48c0.102 0.204 0.882 0.339 1.697 0.339 1.188 0 1.765-0.204 2.579-0.95 1.052-0.95 1.459-2.342 2.070-7.025 0.102-0.645-0.102-0.679-2.953-0.747-1.969-0.068-3.428 0.068-4.073 0.373z"></path>
</symbol>
<symbol id="icon-Hair-Colouring" viewBox="0 0 29 32">
<path d="M0.395 0.504c-0.789 0.789-0.329 1.907 2.696 6.214l3.090 4.405-1.578 1.479c-1.907 1.775-2.63 3.321-2.63 5.589 0 2.203 0.559 3.419 2.696 5.951 0.986 1.184 1.907 2.532 2.005 3.025 0.362 1.381 2.038 3.025 3.912 3.879 2.466 1.052 6.608 1.052 9.074 0 1.874-0.855 3.551-2.499 3.912-3.879 0.099-0.493 1.019-1.841 2.005-3.025 2.137-2.532 2.696-3.748 2.696-6.016 0-3.255-1.907-5.753-5.753-7.529-3.189-1.479-8.219-1.94-11.836-1.085-0.526 0.099-1.447-0.822-4.57-4.636-3.945-4.8-4.701-5.392-5.721-4.373zM8.548 10.564c2.071 2.564 2.17 2.663 3.485 2.597 1.282-0.033 3.090 0.756 3.090 1.348 0 0.132-1.085 1.085-2.433 2.104l-2.4 1.874-0.395-0.822c-0.46-1.019-0.46-2.268 0-3.156 0.362-0.69 0.362-0.756-2.959-5.359-1.71-2.367-0.855-1.611 1.611 1.414zM18.082 10.959c3.551 0.658 6.904 2.762 8.088 4.997 0.559 1.052 0.592 3.321 0.099 4.307-0.46 0.855-2.63 3.189-2.992 3.189-0.131 0-0.559-0.592-0.888-1.282-0.362-0.69-1.184-1.611-1.841-2.005-0.625-0.395-1.151-0.986-1.151-1.282 0-0.329-0.493-1.249-1.085-2.038-0.625-0.789-1.052-1.644-0.953-1.874 0.066-0.23-0.526-1.085-1.348-1.874-1.315-1.315-1.611-1.479-2.992-1.479-0.822 0-1.512-0.132-1.512-0.296 0-0.625 3.978-0.855 6.575-0.362zM7.792 13.293c0.197 0.197 0.296 1.151 0.197 2.367-0.131 1.808-0.066 2.17 0.723 3.321 0.888 1.282 0.888 1.315 0.23 1.808-0.362 0.296-0.888 1.019-1.184 1.578-0.296 0.592-0.658 1.085-0.789 1.085-0.362 0-2.564-2.334-2.992-3.189-0.46-0.921-0.46-3.222 0-4.142 0.493-0.986 2.63-3.189 3.090-3.189 0.197 0 0.526 0.164 0.723 0.362zM16.701 17.633l0.756 1.052-0.888 0.756-0.855 0.756-0.658-0.855c-1.184-1.545-2.499-0.625-1.414 1.019 0.789 1.216 0.263 1.447-0.69 0.296-0.427-0.559-0.789-1.085-0.789-1.216 0-0.23 3.321-2.893 3.616-2.893 0.099 0 0.493 0.493 0.921 1.085zM19.43 21.578c1.151 0.756 2.104 2.301 1.775 2.827-0.263 0.46-4.537 1.348-6.312 1.315-0.855 0-2.531-0.263-3.715-0.559-1.94-0.526-2.137-0.625-2.038-1.381 0.099-0.855 1.249-2.301 1.841-2.301 0.197 0 0.789 0.526 1.282 1.151s1.052 1.151 1.216 1.151c0.132 0 1.151-0.658 2.203-1.479 1.052-0.789 2.071-1.447 2.268-1.479 0.197 0 0.855 0.329 1.479 0.756zM11.671 26.97c2.597 0.526 6.016 0.395 8.548-0.362 0.888-0.296 1.677-0.427 1.775-0.329 0.493 0.46-0.986 2.038-2.729 2.926-1.578 0.789-2.367 0.953-4.11 0.953-2.499-0.033-5.26-1.052-6.279-2.367-0.822-1.052-0.888-1.874-0.066-1.545 0.296 0.131 1.611 0.46 2.86 0.723z"></path>
</symbol>
<symbol id="icon-15" viewBox="0 0 47 32">
<path d="M0.583 31.059v-1.318l6.776-1.129h4.376l6.682 1.129v1.318h-17.835zM6.042 31.059c0.063-0.878 0.11-1.882 0.141-3.012s0.047-2.275 0.047-3.435c0.031-1.192 0.047-2.322 0.047-3.388v-16.188l-4.8 0.424v-1.412l10.918-3.153 0.612 0.518-0.188 8.8v11.012c0 1.067 0 2.196 0 3.388 0.031 1.161 0.063 2.306 0.094 3.435s0.079 2.133 0.141 3.012h-7.012zM34.447 31.765c-2.698 0-4.831-0.612-6.4-1.835s-2.478-2.98-2.729-5.271c0.22-0.69 0.565-1.176 1.035-1.459 0.502-0.314 1.020-0.471 1.553-0.471 0.816 0 1.475 0.267 1.976 0.8 0.502 0.502 0.863 1.459 1.082 2.871l0.706 4.376-1.412-1.271c0.596 0.282 1.145 0.471 1.647 0.565 0.533 0.094 1.035 0.141 1.506 0.141 1.286 0 2.369-0.329 3.247-0.988 0.878-0.69 1.537-1.616 1.976-2.776s0.659-2.447 0.659-3.859c0-1.38-0.22-2.588-0.659-3.624-0.408-1.067-1.035-1.898-1.882-2.494-0.847-0.627-1.914-0.941-3.2-0.941-0.784 0-1.584 0.078-2.4 0.235-0.784 0.157-1.537 0.361-2.259 0.612l-0.941-0.518 0.941-14.494h16.518v5.412h-16.047l1.176-3.859-0.894 12.518-1.224-0.753c1.067-0.565 2.196-0.973 3.388-1.224 1.224-0.251 2.478-0.376 3.765-0.376 2.133 0 4 0.329 5.6 0.988 1.631 0.659 2.902 1.647 3.812 2.965s1.365 2.98 1.365 4.988c0 2.133-0.502 3.922-1.506 5.365s-2.4 2.541-4.188 3.294c-1.788 0.722-3.859 1.082-6.212 1.082z"></path>
</symbol>
<symbol id="icon-Trust" viewBox="0 0 32 32">
<path d="M14.030 0.822c-2.306 1.429-3.020 4.514-1.656 7.242 0.812 1.559 3.832 4.677 6.56 6.69l1.851 1.397 1.884-1.397c2.696-2.014 5.716-5.131 6.528-6.69 1.364-2.728 0.65-5.813-1.656-7.242-1.462-0.877-4.19-0.877-5.651 0.032l-1.104 0.682-1.104-0.682c-1.462-0.909-4.19-0.909-5.651-0.032zM19.519 3.062l1.267 1.267 1.267-1.267c1.072-1.072 1.462-1.267 2.631-1.267 1.104 0 1.559 0.195 2.468 1.104 1.462 1.462 1.494 2.923 0.13 4.904-1.234 1.786-5.814 6.008-6.496 6.008s-5.878-4.839-6.788-6.301c-1.039-1.689-0.909-3.28 0.422-4.612 0.909-0.909 1.364-1.104 2.468-1.104 1.169 0 1.559 0.195 2.631 1.267z"></path>
<path d="M25.17 19.983l-3.573 3.573-5.846-0.065 2.241-0.455c2.793-0.552 3.443-1.104 3.443-2.89 0-2.338-0.26-2.436-7.275-2.436-3.8 0-6.333 0.13-6.788 0.357-1.104 0.552-7.372 6.885-7.372 7.437 0 0.617 5.846 6.496 6.463 6.496 0.26 0 1.072-0.585 1.851-1.299l1.429-1.299h13.413l4.677-4.612c4.255-4.222 4.644-4.709 4.644-5.781 0-1.786-0.747-2.598-2.371-2.598-1.332 0-1.526 0.162-4.937 3.573zM30.789 18.847c0.065 0.455-1.137 1.884-4.157 4.872l-4.222 4.222-13.803 0.195-2.111 2.046-2.371-2.338-2.338-2.338 2.436-2.436c3.735-3.767 3.93-3.865 8.996-3.995 5.164-0.162 6.593 0.032 6.593 0.909 0 0.844-0.617 1.104-4.125 1.819l-3.020 0.585 2.403 2.468h7.502l3.41-3.41c3.443-3.475 4.579-4.092 4.807-2.598z"></path>
</symbol>
<symbol id="icon-Cash" viewBox="0 0 36 32">
<path d="M3.414 0.317l-2.939 0.113v19.555h34.663v-19.592h-2.713c-1.507 0-7.988-0.038-14.43-0.113-6.443-0.038-12.999-0.038-14.581 0.038zM5.75 10.189v8.289h-3.768v-16.578h3.768v8.289zM28.356 10.189v8.289h-21.099v-16.578h21.099v8.289zM33.631 10.189v8.289h-3.768v-16.578h3.768v8.289z"></path>
<path d="M14.566 5.441c-0.716 0.716-1.281 1.545-1.281 1.884s-0.301 0.603-0.754 0.603c-1.243 0-2.261 1.319-2.261 3.014 0 1.846 1.017 3.014 2.637 3.014 1.469 0 1.545-1.206 0.151-1.809-1.356-0.641-1.093-2.035 0.49-2.487 0.867-0.264 1.319-0.716 1.733-1.771 0.98-2.524 4.069-2.524 5.049 0 0.414 1.055 0.867 1.507 1.733 1.771 1.582 0.452 1.846 1.846 0.49 2.487-0.527 0.226-0.98 0.716-0.98 1.13 0 0.942 2.035 0.904 3.014-0.075 1.62-1.62 0.565-5.275-1.507-5.275-0.452 0-0.754-0.264-0.754-0.603s-0.565-1.168-1.281-1.884c-1.13-1.13-1.507-1.281-3.24-1.281s-2.11 0.151-3.24 1.281z"></path>
<path d="M27.113 20.588c-0.151 0.151-0.264 0.791-0.264 1.394 0 1.055-0.075 1.093-1.206 0.904-6.405-1.168-8.138-1.432-11.567-1.771-5.199-0.527-13.489-0.49-13.828 0.038-0.565 0.942 0.829 1.243 7.272 1.507 9.231 0.377 16.767 1.582 22.305 3.542 2.977 1.055 3.052 0.98 3.052-2.449 0-2.75-0.075-3.014-0.754-3.014-0.641 0-0.754 0.264-0.754 1.922 0 1.62-0.113 1.884-0.603 1.695-0.339-0.113-0.98-0.339-1.469-0.452-0.754-0.188-0.942-0.49-1.017-1.771-0.113-1.432-0.603-2.11-1.168-1.545z"></path>
<path d="M0.286 23.338c-0.565 0.942 0.678 1.319 5.35 1.582 8.364 0.49 16.239 2.562 21.363 5.652 3.466 2.072 3.617 2.035 3.617-1.168 0-2.374-0.075-2.637-0.754-2.637-0.603 0-0.754 0.264-0.754 1.319v1.356l-1.13-0.603c-0.942-0.49-1.13-0.829-1.13-1.884s-0.151-1.319-0.754-1.319c-0.527 0-0.754 0.264-0.754 0.791 0 0.904 0.188 0.942-4.069-0.565-4.521-1.582-9.645-2.487-15.372-2.75-3.994-0.151-5.388-0.113-5.614 0.226z"></path>
</symbol>
</defs>
</svg>
